<svg width="26" height="22" viewBox="0 0 26 22" fill="none" xmlns="http://www.w3.org/2000/svg">
<path d="M23.992 12.7608C23.6281 12.7026 23.297 12.6626 22.9477 12.6226C23.2613 12.3291 23.5555 12.0156 23.8283 11.6838L24.0939 11.3636C25.2073 10.0501 25.8077 7.95784 25.6257 6.03301C25.566 5.21192 25.3385 4.41179 24.9574 3.68207C24.5762 2.95234 24.0496 2.30852 23.4098 1.79037C22.1618 0.789743 20.1678 0.356751 18.2066 0.658757C16.242 0.965759 14.4541 1.97084 13.1707 3.48961C13.1517 3.5115 13.1282 3.52902 13.1019 3.54096C13.0755 3.55289 13.0468 3.55896 13.0179 3.55875C12.9889 3.55896 12.9603 3.55289 12.9339 3.54096C12.9075 3.52902 12.884 3.5115 12.8651 3.48961C11.5611 1.9416 9.7416 0.916869 7.74185 0.604169C5.76971 0.298524 3.73938 0.73153 2.49133 1.73943C1.83986 2.2598 1.30287 2.90912 0.914048 3.64669C0.525225 4.38426 0.292923 5.1942 0.231716 6.02573C0.0497848 7.96149 0.661089 10.0682 1.7927 11.3891C4.21603 14.2199 12.2865 21.348 12.6286 21.65L12.7159 21.7337C12.79 21.8027 12.8875 21.8411 12.9888 21.8411C13.0901 21.8411 13.1876 21.8027 13.2617 21.7337L13.3817 21.6209C13.5527 21.4681 17.5771 17.8767 20.7609 14.7985C20.8704 14.6733 20.9337 14.5144 20.9403 14.3482C20.9469 14.1821 20.8965 14.0186 20.7973 13.8852C20.6773 13.7945 20.531 13.7455 20.3806 13.7455C20.2303 13.7455 20.084 13.7945 19.964 13.8852C17.4643 16.283 14.4369 19.0011 13.1452 20.1618L13.1161 20.1873C13.0793 20.2208 13.0313 20.2393 12.9815 20.2393C12.9317 20.2393 12.8837 20.2208 12.8469 20.1873C10.1652 17.7931 4.60538 12.6953 2.76423 10.5449C1.81264 9.29884 1.36685 7.7393 1.51616 6.17855C1.56453 5.52527 1.74642 4.88885 2.05059 4.30868C2.35476 3.72851 2.77473 3.21691 3.28453 2.80555C4.27788 2.01596 5.90801 1.68484 7.54175 1.93591C8.53599 2.0985 9.48563 2.46577 10.3306 3.01444C11.1755 3.56311 11.8973 4.28124 12.4503 5.12335L12.6358 5.38169C12.6727 5.43498 12.7218 5.47854 12.7792 5.50862C12.8365 5.53871 12.9003 5.55443 12.9651 5.55443C13.0299 5.55443 13.0937 5.53871 13.151 5.50862C13.2084 5.47854 13.2576 5.43498 13.2944 5.38169L13.4763 5.10516C14.0253 4.25916 14.7454 3.53749 15.5901 2.98663C16.4349 2.43578 17.3857 2.06794 18.3812 1.9068C20.0259 1.6521 21.656 1.99049 22.6602 2.78735C23.1708 3.20518 23.591 3.72266 23.895 4.3082C24.1991 4.89375 24.3806 5.53509 24.4286 6.19311C24.5778 7.77955 24.0648 9.5552 23.1806 10.614L22.955 10.8833C22.676 11.221 22.3758 11.5407 22.0562 11.8403C22.0562 11.4764 22.0271 11.1344 22.0017 10.7851C21.9762 10.4357 21.4813 10.4576 21.5032 10.7851C21.5468 11.4473 21.565 12.1132 21.5905 12.7754C21.5905 12.7754 21.5905 12.7936 21.5905 12.8045C21.5854 12.857 21.6013 12.9095 21.6347 12.9504C21.6681 12.9913 21.7163 13.0173 21.7688 13.0228C22.4565 13.1392 23.1551 13.1829 23.8428 13.2993C24.1739 13.2993 24.3085 12.8118 23.992 12.7608Z" fill="#ED5544"/>
</svg>
